<mxfile host="app.diagrams.net" modified="2022-08-17T17:46:28.094Z" agent="5.0 (Windows NT 10.0; Win64; x64) AppleWebKit/537.36 (KHTML, like Gecko) Chrome/100.0.4896.75 Safari/537.36" etag="suSu9JBAkAbw5kMFNghW" version="20.2.4" type="github">
  <diagram id="C5RBs43oDa-KdzZeNtuy" name="Page-1">
    <mxGraphModel dx="677" dy="378" grid="1" gridSize="10" guides="1" tooltips="1" connect="1" arrows="1" fold="1" page="1" pageScale="1" pageWidth="827" pageHeight="1169" math="0" shadow="0">
      <root>
        <mxCell id="WIyWlLk6GJQsqaUBKTNV-0" />
        <mxCell id="WIyWlLk6GJQsqaUBKTNV-1" parent="WIyWlLk6GJQsqaUBKTNV-0" />
        <mxCell id="wRzjhMHj0nDuNX7TelwU-0" value="I" style="ellipse;whiteSpace=wrap;html=1;aspect=fixed;" vertex="1" parent="WIyWlLk6GJQsqaUBKTNV-1">
          <mxGeometry x="360" y="80" width="40" height="40" as="geometry" />
        </mxCell>
        <mxCell id="wRzjhMHj0nDuNX7TelwU-3" value="&lt;font size=&quot;1&quot;&gt;ASIGNO LOS MACROS&lt;/font&gt;" style="rounded=0;whiteSpace=wrap;html=1;" vertex="1" parent="WIyWlLk6GJQsqaUBKTNV-1">
          <mxGeometry x="340" y="160" width="80" height="40" as="geometry" />
        </mxCell>
        <mxCell id="wRzjhMHj0nDuNX7TelwU-4" value="" style="endArrow=classic;html=1;rounded=0;fontSize=11;exitX=0.5;exitY=1;exitDx=0;exitDy=0;" edge="1" parent="WIyWlLk6GJQsqaUBKTNV-1" source="wRzjhMHj0nDuNX7TelwU-3">
          <mxGeometry width="50" height="50" relative="1" as="geometry">
            <mxPoint x="360" y="230" as="sourcePoint" />
            <mxPoint x="380" y="240" as="targetPoint" />
          </mxGeometry>
        </mxCell>
        <mxCell id="wRzjhMHj0nDuNX7TelwU-5" value="" style="endArrow=none;html=1;rounded=0;fontSize=11;entryX=0.5;entryY=1;entryDx=0;entryDy=0;exitX=0.5;exitY=0;exitDx=0;exitDy=0;" edge="1" parent="WIyWlLk6GJQsqaUBKTNV-1" source="wRzjhMHj0nDuNX7TelwU-3" target="wRzjhMHj0nDuNX7TelwU-0">
          <mxGeometry width="50" height="50" relative="1" as="geometry">
            <mxPoint x="360" y="250" as="sourcePoint" />
            <mxPoint x="410" y="200" as="targetPoint" />
          </mxGeometry>
        </mxCell>
        <mxCell id="wRzjhMHj0nDuNX7TelwU-7" value="&lt;font style=&quot;font-size: 8px;&quot;&gt;mientras que el bot1 este apretado&lt;/font&gt;" style="rhombus;whiteSpace=wrap;html=1;fontSize=11;" vertex="1" parent="WIyWlLk6GJQsqaUBKTNV-1">
          <mxGeometry x="330" y="240" width="100" height="80" as="geometry" />
        </mxCell>
        <mxCell id="wRzjhMHj0nDuNX7TelwU-9" value="" style="endArrow=classic;html=1;rounded=0;fontSize=8;exitX=0.5;exitY=1;exitDx=0;exitDy=0;" edge="1" parent="WIyWlLk6GJQsqaUBKTNV-1" source="wRzjhMHj0nDuNX7TelwU-7">
          <mxGeometry width="50" height="50" relative="1" as="geometry">
            <mxPoint x="360" y="310" as="sourcePoint" />
            <mxPoint x="380" y="360" as="targetPoint" />
          </mxGeometry>
        </mxCell>
        <mxCell id="wRzjhMHj0nDuNX7TelwU-10" value="contador empieza a sumar" style="rounded=0;whiteSpace=wrap;html=1;fontSize=8;" vertex="1" parent="WIyWlLk6GJQsqaUBKTNV-1">
          <mxGeometry x="350" y="360" width="60" height="30" as="geometry" />
        </mxCell>
      </root>
    </mxGraphModel>
  </diagram>
</mxfile>
